<svg xmlns="http://www.w3.org/2000/svg" viewBox="0 0 55.94 64"><defs><style>.cls-1{fill-rule:evenodd;}</style></defs><title>business idea</title><g id="Layer_2" data-name="Layer 2"><g id="business_idea" data-name="business idea"><path class="cls-1" d="M47.87,28A19.91,19.91,0,1,0,8.06,28c0,8.89,6.11,16,11.5,22.2l1.09,1.27a3.86,3.86,0,0,0-2.05,3.4v5.28A3.88,3.88,0,0,0,22.47,64h11a3.88,3.88,0,0,0,3.88-3.88V54.84a3.86,3.86,0,0,0-2.07-3.41l1-1.24C41.74,43.78,47.87,36.51,47.87,28ZM10.06,28a17.91,17.91,0,1,1,35.81,0c0,7.82-5.88,14.79-11.06,20.94L33.08,51H22.87l-1.81-2.1C15.65,42.59,10.06,36.11,10.06,28ZM33.49,62h-11a1.88,1.88,0,0,1-1.88-1.88V58.48H35.37v1.64A1.88,1.88,0,0,1,33.49,62Zm1.88-5.52H20.59V54.84A1.88,1.88,0,0,1,22.47,53h11a1.88,1.88,0,0,1,1.88,1.88Z"/><path class="cls-1" d="M27.86,42.12h0a14.27,14.27,0,1,0-14.26-14.4.29.29,0,0,0,0,.23A14.28,14.28,0,0,0,27.86,42.12Zm-1-26.48v1.71a1,1,0,1,0,2,0V15.64A12.27,12.27,0,0,1,40.12,26.87H38.39a1,1,0,0,0,0,2h1.73a12.27,12.27,0,0,1-11.25,11.2V38.36a1,1,0,0,0-2,0v1.72A12.27,12.27,0,0,1,15.69,28.84h1.7a1,1,0,0,0,0-2H15.69A12.27,12.27,0,0,1,26.9,15.64Z"/><path class="cls-1" d="M28,4.42a1,1,0,0,0,1-1V1a1,1,0,0,0-2,0V3.42A1,1,0,0,0,28,4.42Z"/><path class="cls-1" d="M44,10.2a1,1,0,0,0,.71-.29L46.4,8.19A1,1,0,0,0,45,6.78L43.27,8.49A1,1,0,0,0,44,10.2Z"/><path class="cls-1" d="M10.44,10.2a1,1,0,0,0,.71-1.71L9.44,6.78A1,1,0,0,0,8,8.19L9.73,9.91A1,1,0,0,0,10.44,10.2Z"/><path class="cls-1" d="M54.94,26.2h-2.6a1,1,0,0,0,0,2h2.6a1,1,0,1,0,0-2Z"/><path class="cls-1" d="M3.6,26.2H1a1,1,0,0,0,0,2H3.6a1,1,0,0,0,0-2Z"/><path class="cls-1" d="M26.6,32.82l.31.09v1a.81.81,0,0,0,.4.75.9.9,0,0,0,1.4-.71V32.9L29,32.8a3.13,3.13,0,0,0,1.47-1,2.84,2.84,0,0,0,.82-2.31A3,3,0,0,0,29.09,27c-.33-.09-.67-.13-1-.21s-1.11-.28-1.35-.72a.74.74,0,0,1-.09-.36,1,1,0,0,1,.34-.81,1.63,1.63,0,0,1,1.35-.13,2.68,2.68,0,0,1,1,.49,1,1,0,0,0,1.18.14.91.91,0,0,0,.39-.74,1.36,1.36,0,0,0-.5-1h0A3.44,3.44,0,0,0,29,23l-.32-.09V21.71a.74.74,0,0,0-.27-.61c-.47-.36-1.53-.23-1.53.51v1.25l-.31.09a2.83,2.83,0,0,0-1.68,1.31,3.28,3.28,0,0,0-.4,2.17,2,2,0,0,0,.88,1.45,5.42,5.42,0,0,0,1.63.54,5.13,5.13,0,0,1,1.09.37,2.47,2.47,0,0,1,.49.33,1.15,1.15,0,0,1,.45,1.18,1.29,1.29,0,0,1-1.12.8,2,2,0,0,1-1.67-.72h0a1.4,1.4,0,0,0-.79-.57.9.9,0,0,0-.7.13,1,1,0,0,0-.42.65,1.2,1.2,0,0,0,.25.9A3.64,3.64,0,0,0,26.6,32.82Z"/></g></g></svg>