<?xml version="1.0" encoding="utf-8"?>
<!-- Generator: Adobe Illustrator 16.0.0, SVG Export Plug-In . SVG Version: 6.00 Build 0)  -->
<!DOCTYPE svg PUBLIC "-//W3C//DTD SVG 1.1//EN" "http://www.w3.org/Graphics/SVG/1.1/DTD/svg11.dtd">
<svg version="1.1" id="Layer_1" xmlns="http://www.w3.org/2000/svg" xmlns:xlink="http://www.w3.org/1999/xlink" x="0px" y="0px"
	 width="128px" height="128px" viewBox="0 0 128 128" enable-background="new 0 0 128 128" xml:space="preserve">
<g>
	<g>
		<path fill="#282D33" d="M101.957,128l-75.98-0.039c-3.71,0-6.729-2.996-6.729-6.68l0.06-101.853
			c0.007-3.681,3.025-6.673,6.728-6.673l14.739,0.008l-0.002,4l-14.738-0.008c-1.5,0-2.724,1.201-2.727,2.678l-0.06,101.848
			c0,1.477,1.225,2.68,2.73,2.68l75.98,0.039c1.505,0,2.73-1.201,2.73-2.676l0.063-101.852c0-1.474-1.225-2.675-2.729-2.675
			l-18.528-0.012l0.002-4l18.527,0.012c3.71,0,6.729,2.995,6.729,6.676l-0.063,101.851C108.688,125.006,105.669,128,101.957,128z"/>
	</g>
	<g>
		<g>
			<polygon fill="#282D33" points="99.014,117.543 29.469,117.504 29.521,21.875 46.169,21.883 46.167,25.883 33.519,25.876 
				33.471,113.506 95.016,113.541 95.064,25.909 78.525,25.899 78.527,21.899 99.066,21.911 			"/>
		</g>
	</g>
	<g>
		<g>
			<path fill="#282D33" d="M62.136,3.938c0.001,0,0.003,0,0.004,0c0.026,0,0.051,0.008,0.076,0.009
				c0.027-0.001,0.052-0.009,0.078-0.009c2.1,0,3.8,1.682,3.799,3.756c-0.003,1.118-0.506,2.11-1.287,2.797l1.787,3.059l0.857,1.471
				l7.916,0.005L75.362,25.86H49.703l0.007-10.85l7.264,0.005l0.859-1.471l1.788-3.059c-0.781-0.688-1.283-1.679-1.283-2.794
				C58.339,5.616,60.04,3.938,62.136,3.938 M62.213,9.472c0.96-0.041,1.73-0.817,1.731-1.778c0-0.958-0.766-1.732-1.723-1.778
				c-0.963,0.038-1.734,0.816-1.734,1.778C60.487,8.652,61.252,9.431,62.213,9.472 M62.294,0H62.14h-0.155l-0.012,0.002
				c-4.19,0.088-7.57,3.503-7.572,7.688c0,1.012,0.204,2.003,0.587,2.922l-0.271,0.464l-5.004-0.003l-3.938-0.003l-0.002,3.938
				l-0.007,10.85l-0.003,3.94h3.94h25.659h3.936L79.3,25.86l0.004-10.835l0.002-3.937l-3.938-0.002l-5.656-0.004l-0.271-0.465
				c0.384-0.917,0.588-1.907,0.59-2.917c0.002-2.071-0.809-4.009-2.279-5.464C66.29,0.794,64.354,0,62.294,0L62.294,0z"/>
		</g>
	</g>
	<g>
		<g>
			<path fill="#282D33" d="M73.284,108.215c-8.951,0-16.233-7.209-16.233-16.068s7.282-16.068,16.233-16.068
				c8.95,0,16.232,7.209,16.232,16.068S82.234,108.215,73.284,108.215z M73.284,80.078c-6.745,0-12.233,5.414-12.233,12.068
				s5.488,12.068,12.233,12.068s12.232-5.414,12.232-12.068S80.029,80.078,73.284,80.078z"/>
		</g>
		<g>
			<g>
				
					<rect x="71.284" y="84.149" transform="matrix(0.7032 0.711 -0.711 0.7032 87.2679 -24.7552)" fill="#282D33" width="4" height="15.996"/>
			</g>
			<g>
				
					<rect x="65.286" y="90.147" transform="matrix(0.7111 0.7031 -0.7031 0.7111 85.955 -24.9048)" fill="#282D33" width="15.996" height="4"/>
			</g>
		</g>
	</g>
	<g>
		<path fill="#282D33" d="M50.025,63.02c-5.352,0-9.705-4.315-9.705-9.62c0-5.302,4.354-9.615,9.705-9.615
			c5.354,0,9.71,4.313,9.71,9.615C59.735,58.704,55.379,63.02,50.025,63.02z M50.025,47.785c-3.146,0-5.705,2.519-5.705,5.615
			c0,3.099,2.559,5.62,5.705,5.62c3.148,0,5.71-2.521,5.71-5.62C55.735,50.303,53.173,47.785,50.025,47.785z"/>
	</g>
	<g>
		<g>
			<polygon fill="#282D33" points="84.883,48.519 76.87,40.6 68.863,48.519 66.051,45.675 76.87,34.975 87.695,45.674 			"/>
		</g>
		<g>
			<path fill="#282D33" d="M38.795,82.754v-4c20.033,0,36.331-15.877,36.331-35.393c0-1.206-0.063-2.425-0.185-3.622l3.979-0.408
				c0.137,1.332,0.206,2.688,0.206,4.03C79.126,65.082,61.034,82.754,38.795,82.754z"/>
		</g>
	</g>
</g>
</svg>
