<?xml version="1.0" encoding="utf-8"?>
<!-- Generator: Adobe Illustrator 24.3.0, SVG Export Plug-In . SVG Version: 6.00 Build 0)  -->
<svg version="1.1" id="Layer_1" xmlns="http://www.w3.org/2000/svg" xmlns:xlink="http://www.w3.org/1999/xlink" x="0px" y="0px"
	 viewBox="0 0 120 120" enable-background="new 0 0 120 120" xml:space="preserve">
<path fill="#FBCF26" d="M69.113,90.51H39.401c-4.156-0.007-7.674-2.668-8.979-6.376h47.671
	C76.788,87.842,73.269,90.503,69.113,90.51z M60.644,60.746c0.019,0.013,0.025,0.016,0.048,0.03c0.551,0.348,1.931,1.287,3.531,2.89
	c1.07,1.067,1.975,2.167,2.605,2.994c0.601,0.79,0.926,1.293,0.958,1.338c-0.829,1.005-2.043,1.937-3.952,2.607
	c-0.868,0.296-1.691,0.422-2.488,0.424c-2.731,0.016-5.301-1.585-7.187-3.384c-0.527-0.501-0.998-1.011-1.398-1.486
	c2.828-0.339,4.468-2.26,5.8-3.634C59.262,61.829,59.897,61.222,60.644,60.746z M88.924,42.279l-2.083,2.084l-1.994-1.995
	l2.083-2.083c0.221-0.223,0.494-0.328,0.789-0.33c0.291,0.002,0.571,0.107,0.794,0.33l0.409,0.41
	c0.223,0.223,0.329,0.502,0.329,0.792C89.251,41.778,89.145,42.058,88.924,42.279z"/>
<g>
	<path fill="#1A2559" d="M92.252,41.487c0.002-1.05-0.406-2.114-1.208-2.911l-0.406-0.411c-0.805-0.802-1.867-1.21-2.919-1.208
		c-1.047-0.002-2.115,0.402-2.916,1.213l-3.161,3.16l-0.001-3.231c-0.002-6.92-5.609-12.527-12.528-12.529H39.401
		c-6.921,0.002-12.528,5.609-12.528,12.529v42.885c0,6.917,5.607,12.525,12.528,12.527h29.712
		c6.919-0.002,12.526-5.608,12.528-12.527V53.806l9.405-9.405C91.848,43.601,92.254,42.536,92.252,41.487z M60.644,60.746
		c0.019,0.013,0.025,0.016,0.048,0.03c0.551,0.348,1.931,1.287,3.531,2.89c1.07,1.067,1.975,2.167,2.605,2.994
		c0.601,0.79,0.926,1.293,0.958,1.338c-0.829,1.005-2.043,1.937-3.952,2.607c-0.868,0.296-1.691,0.422-2.488,0.424
		c-2.731,0.016-5.301-1.585-7.187-3.384c-0.527-0.501-0.998-1.011-1.398-1.486c2.828-0.339,4.468-2.26,5.8-3.634
		C59.262,61.829,59.897,61.222,60.644,60.746z M69.309,64.97c-0.694-0.92-1.708-2.169-2.964-3.426
		c-0.718-0.719-1.388-1.307-1.99-1.798c0.017-0.001,0.03-0.003,0.046-0.003c0.467,0,0.994,0.045,1.558,0.116l3.591,3.591
		C69.52,63.874,69.453,64.396,69.309,64.97z M70.773,60.431l-1.995-1.994L82.725,44.49l1.994,1.994L70.773,60.431z M69.113,90.51
		H39.401c-4.156-0.007-7.674-2.668-8.979-6.376h47.671C76.788,87.842,73.269,90.503,69.113,90.51z M78.641,80.984
		c0,0.051-0.007,0.1-0.008,0.15H29.88c-0.001-0.051-0.008-0.1-0.008-0.15V38.099c0.01-5.262,4.266-9.519,9.529-9.527h29.712
		c5.263,0.008,9.519,4.266,9.528,9.527v6.232L66.115,56.859c-0.597-0.068-1.174-0.114-1.713-0.116
		c-4.038-0.041-6.411,2.023-7.987,3.688c-1.688,1.721-2.577,2.772-4.565,2.782c-0.451,0-0.978-0.058-1.599-0.202
		c-0.067-0.016-0.179-0.037-0.346-0.039c-0.358-0.035-1,0.234-1.255,0.661c-0.263,0.407-0.261,0.7-0.268,0.874
		c0.027,0.511,0.117,0.592,0.177,0.776c0.459,1.01,1.774,2.94,3.956,4.927c2.161,1.931,5.171,3.806,8.831,3.819
		c1.12,0,2.287-0.185,3.466-0.588c3.447-1.18,5.495-3.339,6.544-5.432c1.065-2.091,1.215-4.064,1.217-5.112c0-0.008,0-0.014,0-0.022
		l6.069-6.069V80.984z M88.924,42.279l-2.083,2.084l-1.994-1.995l2.083-2.083c0.221-0.223,0.494-0.328,0.789-0.33
		c0.291,0.002,0.571,0.107,0.794,0.33l0.409,0.41c0.223,0.223,0.329,0.502,0.329,0.792C89.251,41.778,89.145,42.058,88.924,42.279z"
		/>
</g>
<g>
	<g>
		<path fill="#1A2559" d="M51.862,88.884c-0.829,0-1.499-0.672-1.499-1.501l0,0c0-0.828,0.67-1.5,1.499-1.5l0,0h3.249
			c0.829,0,1.5,0.672,1.5,1.5l0,0c0,0.829-0.672,1.501-1.5,1.501l0,0H51.862L51.862,88.884z"/>
	</g>
</g>
<g>
	<g>
		<path fill="#FBCF26" d="M67.861,39.384v-3.001h3.001v3.001H67.861L67.861,39.384z M61.861,39.384v-3.001h3.001v3.001H61.861
			L61.861,39.384z M55.861,39.384v-3.001h3.001v3.001H55.861L55.861,39.384z M49.862,39.384v-3.001h3.001v3.001H49.862
			L49.862,39.384z M43.862,39.384v-3.001h3.001v3.001H43.862L43.862,39.384z M37.862,39.384v-3.001h3.001v3.001H37.862
			L37.862,39.384z"/>
	</g>
</g>
</svg>
