<?xml version="1.0" encoding="utf-8"?>
<!-- Generator: Adobe Illustrator 24.3.0, SVG Export Plug-In . SVG Version: 6.00 Build 0)  -->
<svg version="1.1" id="Layer_1" xmlns="http://www.w3.org/2000/svg" xmlns:xlink="http://www.w3.org/1999/xlink" x="0px" y="0px"
	 viewBox="0 0 180 180" enable-background="new 0 0 180 180" xml:space="preserve">
<g>
	<g id="XMLID_483_">
		<path fill="#F2F2F2" d="M90,25.378c-35.69,0-64.622,28.932-64.622,64.621c0,35.691,28.932,64.623,64.622,64.623
			c35.69,0,64.622-28.932,64.622-64.623C154.622,54.31,125.69,25.378,90,25.378z"/>
	</g>
	<g>
		<g>
			<path fill="#F2F2F2" d="M121.492,95.85c-0.851-0.939-2.315-1.012-3.255-0.16l-12.139,11.003c-0.939,0.853-1.011,2.315-0.16,3.255
				l0.397,0.438c0.852,0.939,2.316,1.011,3.254,0.16l12.139-11.004c0.938-0.851,1.011-2.316,0.159-3.255L121.492,95.85z"/>
		</g>
		<g>
			<path fill="#F2F2F2" d="M130.938,100.935c-0.851-0.939-2.315-1.012-3.254-0.16l-15.269,13.84
				c-0.939,0.852-1.011,2.315-0.16,3.255l0.397,0.439c0.852,0.938,2.316,1.009,3.255,0.159l15.269-13.841
				c0.939-0.851,1.011-2.316,0.159-3.255L130.938,100.935z"/>
		</g>
		<g>
			<path fill="#F2F2F2" d="M141.436,91.418c-0.851-0.938-2.316-1.011-3.255-0.159l-5.637,5.109c-0.939,0.851-1.01,2.316-0.159,3.255
				l0.397,0.438c0.851,0.94,2.316,1.012,3.255,0.16l5.637-5.11c0.939-0.851,1.011-2.315,0.16-3.255L141.436,91.418z"/>
		</g>
		<g>
			<path fill="#F2F2F2" d="M119.526,105.168l-0.397-0.438c-0.851-0.94-0.779-2.404,0.159-3.255l-5.141,4.661
				c0.939-0.852,2.403-0.78,3.254,0.159l0.397,0.438c0.851,0.938,0.779,2.403-0.159,3.255l5.141-4.661
				C121.841,106.178,120.376,106.106,119.526,105.168z"/>
		</g>
	</g>
	<g>
		<g>
			<path fill="#F2F2F2" d="M59.526,95.846c-0.851-0.938-2.315-1.011-3.254-0.159L44.133,106.69c-0.939,0.852-1.011,2.314-0.16,3.254
				l0.397,0.439c0.852,0.938,2.316,1.01,3.254,0.159l12.139-11.004c0.939-0.851,1.01-2.316,0.159-3.255L59.526,95.846z"/>
		</g>
		<g>
			<path fill="#F2F2F2" d="M68.973,100.931c-0.851-0.938-2.316-1.011-3.254-0.159l-15.269,13.84
				c-0.939,0.852-1.011,2.315-0.16,3.254l0.397,0.439c0.851,0.939,2.316,1.012,3.254,0.16l15.269-13.841
				c0.938-0.851,1.01-2.316,0.16-3.255L68.973,100.931z"/>
		</g>
		<g>
			<path fill="#F2F2F2" d="M79.47,91.415c-0.851-0.939-2.315-1.011-3.254-0.159l-5.638,5.109c-0.939,0.851-1.011,2.315-0.16,3.255
				l0.398,0.438c0.851,0.939,2.315,1.012,3.254,0.16l5.637-5.11c0.939-0.851,1.011-2.315,0.16-3.255L79.47,91.415z"/>
		</g>
		<g>
			<path fill="#F2F2F2" d="M57.56,105.164l-0.397-0.438c-0.851-0.938-0.78-2.402,0.16-3.254l-5.142,4.661
				c0.939-0.852,2.404-0.78,3.254,0.159l0.397,0.439c0.851,0.938,0.779,2.403-0.16,3.254l5.142-4.66
				C59.875,106.176,58.411,106.104,57.56,105.164z"/>
		</g>
	</g>
	<g>
		<g>
			<path fill="#F2F2F2" d="M66.772,64.768c-0.851-0.939-2.315-1.011-3.255-0.159L51.378,75.611c-0.939,0.852-1.01,2.315-0.159,3.254
				l0.397,0.439c0.851,0.938,2.315,1.011,3.254,0.159L67.01,68.46c0.938-0.851,1.011-2.315,0.16-3.255L66.772,64.768z"/>
		</g>
		<g>
			<path fill="#F2F2F2" d="M60.455,56.846c-0.851-0.938-2.315-1.011-3.254-0.16L41.932,70.526c-0.938,0.852-1.01,2.315-0.16,3.254
				l0.397,0.439c0.851,0.938,2.316,1.011,3.254,0.16l15.269-13.842c0.938-0.851,1.011-2.316,0.16-3.254L60.455,56.846z"/>
		</g>
		<g>
			<path fill="#F2F2F2" d="M40.326,75.092c-0.851-0.938-2.315-1.011-3.254-0.16l-5.638,5.11c-0.939,0.852-1.011,2.315-0.159,3.255
				l0.398,0.438c0.851,0.939,2.315,1.011,3.254,0.159l5.637-5.109c0.939-0.852,1.011-2.315,0.16-3.254L40.326,75.092z"/>
		</g>
		<g>
			<path fill="#F2F2F2" d="M55.707,68.857l-0.397-0.438c-0.852-0.939-0.78-2.403,0.159-3.255l-5.141,4.66
				c0.938-0.851,2.403-0.778,3.254,0.16l0.397,0.439c0.852,0.938,0.779,2.402-0.159,3.254l5.141-4.66
				C58.023,69.869,56.559,69.797,55.707,68.857z"/>
		</g>
	</g>
	<g>
		<g>
			<path fill="#F2F2F2" d="M119.838,69.584l-9.744,8.834c-0.883,0.8-0.95,2.177-0.15,3.058c0.799,0.882,2.175,0.95,3.058,0.15
				l9.744-8.832c0.883-0.801,0.95-2.178,0.15-3.06C122.097,68.853,120.721,68.785,119.838,69.584z"/>
		</g>
		<g>
			<path fill="#F2F2F2" d="M127.706,73.819l-12.35,11.196c-0.883,0.799-0.951,2.175-0.15,3.059c0.799,0.882,2.175,0.949,3.058,0.149
				l12.351-11.195c0.882-0.801,0.95-2.176,0.15-3.06C129.964,73.087,128.588,73.02,127.706,73.819z"/>
		</g>
		<g>
			<path fill="#F2F2F2" d="M136.448,65.895l-4.33,3.925c-0.881,0.8-0.949,2.177-0.15,3.058c0.8,0.883,2.177,0.95,3.059,0.15
				l4.33-3.925c0.882-0.8,0.95-2.176,0.15-3.059C138.707,65.162,137.331,65.095,136.448,65.895z"/>
		</g>
		<g>
			<path fill="#F2F2F2" d="M121.093,77.313l-0.331-0.366c-0.709-0.781-0.649-2,0.133-2.71l-4.282,3.882
				c0.782-0.708,2.002-0.649,2.71,0.133l0.331,0.365c0.709,0.781,0.649,2.002-0.133,2.71l4.282-3.882
				C123.022,78.155,121.802,78.095,121.093,77.313z"/>
		</g>
	</g>
	<g>
		<g>
			<path fill="#333333" d="M134.29,53.609l-9.34,8.466c-0.157,0.143-0.168,0.385-0.026,0.542c0.076,0.084,0.18,0.127,0.285,0.127
				c0.092,0,0.184-0.033,0.257-0.1l9.34-8.466c0.157-0.142,0.169-0.386,0.027-0.543C134.69,53.48,134.447,53.467,134.29,53.609z"/>
		</g>
		<g>
			<path fill="#333333" d="M131.838,61.342l-1.114,1.009c-0.157,0.142-0.169,0.387-0.026,0.543c0.076,0.083,0.18,0.126,0.284,0.126
				c0.092,0,0.185-0.032,0.258-0.1l1.114-1.01c0.157-0.143,0.169-0.385,0.026-0.542C132.238,61.211,131.996,61.198,131.838,61.342z"
				/>
		</g>
		<g>
			<path fill="#333333" d="M138.088,55.676l-4.201,3.808c-0.157,0.142-0.168,0.385-0.026,0.542c0.075,0.084,0.18,0.127,0.284,0.127
				c0.093,0,0.185-0.033,0.258-0.101l4.201-3.806c0.157-0.143,0.17-0.387,0.027-0.543C138.488,55.545,138.246,55.533,138.088,55.676
				z"/>
		</g>
		<g>
			<path fill="#333333" d="M135.621,61.538l-5.071,4.597c-0.157,0.143-0.169,0.385-0.026,0.542c0.076,0.084,0.18,0.126,0.284,0.126
				c0.092,0,0.185-0.032,0.258-0.1l5.071-4.597c0.157-0.142,0.168-0.385,0.026-0.541C136.02,61.407,135.778,61.396,135.621,61.538z"
				/>
		</g>
	</g>
	<g>
		<g>
			<path fill="#333333" d="M50.52,87.744l-9.34,8.465c-0.157,0.142-0.169,0.386-0.026,0.543c0.076,0.084,0.18,0.126,0.284,0.126
				c0.092,0,0.185-0.033,0.258-0.1l9.34-8.467c0.157-0.142,0.169-0.384,0.026-0.541C50.919,87.613,50.677,87.601,50.52,87.744z"/>
		</g>
		<g>
			<path fill="#333333" d="M48.068,95.476l-1.114,1.01c-0.157,0.143-0.169,0.385-0.026,0.542c0.076,0.084,0.18,0.127,0.285,0.127
				c0.092,0,0.184-0.033,0.258-0.101l1.114-1.01c0.157-0.142,0.169-0.385,0.027-0.541C48.468,95.345,48.225,95.333,48.068,95.476z"
				/>
		</g>
		<g>
			<path fill="#333333" d="M54.318,89.81l-4.2,3.809c-0.157,0.142-0.169,0.385-0.027,0.542c0.076,0.083,0.18,0.126,0.285,0.126
				c0.092,0,0.184-0.033,0.258-0.1l4.201-3.808c0.157-0.143,0.169-0.384,0.026-0.542C54.718,89.68,54.475,89.668,54.318,89.81z"/>
		</g>
		<g>
			<path fill="#333333" d="M51.85,95.672l-5.071,4.597c-0.157,0.142-0.169,0.385-0.026,0.542c0.076,0.084,0.18,0.127,0.285,0.127
				c0.092,0,0.184-0.033,0.257-0.101l5.071-4.596c0.157-0.143,0.17-0.385,0.027-0.542C52.25,95.542,52.007,95.529,51.85,95.672z"/>
		</g>
	</g>
	<g>
		<g>
			<path fill="#333333" d="M129.853,110.916l-14.147,12.822c-0.158,0.143-0.17,0.386-0.027,0.543
				c0.076,0.083,0.18,0.125,0.285,0.125c0.091,0,0.184-0.031,0.257-0.099l14.147-12.822c0.157-0.143,0.169-0.386,0.027-0.542
				C130.252,110.786,130.009,110.773,129.853,110.916z"/>
		</g>
		<g>
			<path fill="#333333" d="M124.728,121.07l-1.687,1.528c-0.157,0.143-0.17,0.386-0.027,0.543c0.076,0.084,0.18,0.127,0.285,0.127
				c0.091,0,0.184-0.033,0.257-0.101l1.688-1.528c0.157-0.143,0.169-0.385,0.027-0.542
				C125.127,120.94,124.885,120.929,124.728,121.07z"/>
		</g>
		<g>
			<path fill="#333333" d="M134.194,112.49l-6.362,5.766c-0.157,0.143-0.169,0.386-0.027,0.544c0.076,0.082,0.18,0.125,0.285,0.125
				c0.092,0,0.184-0.032,0.257-0.1l6.363-5.767c0.157-0.143,0.169-0.385,0.026-0.542
				C134.595,112.359,134.352,112.347,134.194,112.49z"/>
		</g>
		<g>
			<path fill="#333333" d="M129.528,120.345l-7.681,6.962c-0.157,0.142-0.169,0.384-0.026,0.542c0.076,0.083,0.18,0.126,0.285,0.126
				c0.092,0,0.184-0.032,0.258-0.101l7.68-6.961c0.157-0.142,0.169-0.385,0.027-0.542
				C129.928,120.214,129.686,120.202,129.528,120.345z"/>
		</g>
	</g>
	<g>
		<g>
			<path fill="#333333" d="M137.476,79.702l-8.772,7.951c-0.157,0.142-0.169,0.385-0.027,0.542c0.076,0.083,0.18,0.126,0.285,0.126
				c0.092,0,0.184-0.032,0.257-0.1l8.772-7.951c0.157-0.141,0.169-0.385,0.027-0.542C137.876,79.571,137.633,79.56,137.476,79.702z"
				/>
		</g>
		<g>
			<path fill="#333333" d="M135.34,87.147l-1.046,0.948c-0.157,0.143-0.169,0.385-0.027,0.542c0.076,0.084,0.18,0.127,0.285,0.127
				c0.092,0,0.184-0.033,0.258-0.101l1.046-0.947c0.156-0.143,0.168-0.386,0.026-0.542C135.74,87.018,135.497,87.005,135.34,87.147z
				"/>
		</g>
		<g>
			<path fill="#333333" d="M141.21,81.827l-3.945,3.576c-0.156,0.142-0.169,0.385-0.026,0.542c0.076,0.083,0.18,0.126,0.284,0.126
				c0.092,0,0.185-0.033,0.258-0.1l3.945-3.576c0.157-0.142,0.169-0.385,0.026-0.541C141.61,81.697,141.367,81.685,141.21,81.827z"
				/>
		</g>
		<g>
			<path fill="#333333" d="M139.002,87.453l-4.763,4.317c-0.157,0.143-0.169,0.385-0.026,0.543c0.076,0.082,0.18,0.125,0.284,0.125
				c0.092,0,0.185-0.032,0.258-0.099l4.763-4.316c0.157-0.143,0.169-0.387,0.027-0.543
				C139.402,87.323,139.159,87.311,139.002,87.453z"/>
		</g>
	</g>
	<g>
		<g>
			<path fill="#333333" d="M61.874,115.53l-12.819,11.619c-0.157,0.143-0.169,0.386-0.027,0.542c0.076,0.085,0.18,0.127,0.285,0.127
				c0.092,0,0.184-0.033,0.258-0.1L62.39,116.1c0.157-0.143,0.169-0.385,0.026-0.542C62.274,115.4,62.031,115.388,61.874,115.53z"/>
		</g>
		<g>
			<path fill="#333333" d="M57.487,125.016l-1.529,1.386c-0.157,0.142-0.169,0.386-0.026,0.543c0.076,0.083,0.18,0.126,0.284,0.126
				c0.092,0,0.185-0.033,0.258-0.1l1.529-1.386c0.157-0.143,0.169-0.385,0.026-0.542C57.887,124.886,57.645,124.873,57.487,125.016z
				"/>
		</g>
		<g>
			<path fill="#333333" d="M66.065,117.24l-5.765,5.227c-0.157,0.142-0.169,0.385-0.027,0.541c0.076,0.084,0.18,0.127,0.285,0.127
				c0.092,0,0.185-0.033,0.258-0.1l5.765-5.226c0.157-0.142,0.169-0.386,0.027-0.542C66.466,117.11,66.223,117.098,66.065,117.24z"
				/>
		</g>
		<g>
			<path fill="#333333" d="M62.006,124.544l-6.959,6.309c-0.157,0.143-0.168,0.386-0.026,0.543c0.076,0.083,0.18,0.126,0.284,0.126
				c0.092,0,0.185-0.032,0.258-0.1l6.96-6.308c0.157-0.143,0.169-0.386,0.027-0.543C62.407,124.414,62.164,124.402,62.006,124.544z"
				/>
		</g>
	</g>
	<g>
		<g>
			<g>
				<g>
					<path fill="#333333" d="M78.251,138.603c-3.438,0-3.438-6.39,0-6.39h22.788c3.441,0,3.445,6.39,0,6.39H78.251z"/>
				</g>
			</g>
			<g>
				<g>
					<path fill="#333333" d="M79.601,140.873h19.905c-2.408,3.545-5.511,6.597-9.83,6.597
						C85.194,147.47,82.254,144.123,79.601,140.873z"/>
				</g>
			</g>
			<g>
				<g>
					<g>
						<path fill="#333333" d="M74.019,129.864c-4.291,0-4.293-6.388,0-6.388h31.254c4.294,0,4.293,6.388,0,6.388H74.019z"/>
					</g>
				</g>
				<g>
					<g>
						<path fill="#ADEBF6" d="M140.065,36.625l-4.853,14.142l-2.672-2.67l-11.692,11.69c6.132,13.627,1.371,25.242-11.203,44.657
							v16.812c0,0-12.306,0.003-23.261-0.022c5.262-3.539,8.724-9.552,8.724-16.374c0-7.534-4.225-14.08-10.437-17.402
							l43.615-43.614l-2.37-2.368L140.065,36.625z"/>
					</g>
				</g>
				<g>
					<g>
						<path fill="#ADEBF6" d="M138.113,37.293l-3.093,9.441l-2.249-2.246l-13.612,13.61c6.132,13.626-0.098,23.771-12.673,43.186
							v16.812c0,0-7.777,0.001-16.471-0.011c-1.076,1.189-2.295,2.248-3.631,3.146c10.955,0.025,23.261,0.022,23.261,0.022v-16.812
							c12.574-19.415,17.335-31.03,11.203-44.657l11.692-11.69l2.672,2.67l4.853-14.142L138.113,37.293z"/>
					</g>
				</g>
				<g>
					<g>
						<path fill="#FF916E" d="M62.706,93.779c4.756-4.756,1.324-1.436,45.688-44.826l-2.538-2.539l14.148-4.852l-4.851,14.146
							l-2.507-2.506C80.819,84,87.723,77.269,65.979,99.012C64.598,96.864,64.016,95.959,62.706,93.779z"/>
					</g>
				</g>
			</g>
		</g>
		<g>
			<path fill="#B2B2B2" d="M54.576,72.47c0,5.761,3.448,12.737,5.936,17.46c5.123-5.122,2.498-2.472,29.98-30.143l2.721,2.722
				l4.853-14.145l-14.147,4.852l2.32,2.321L62.239,79.69c-7.867-20.587,15.835-40.898,38.29-31.641l4.537-4.453
				C82.09,32.193,54.576,48.09,54.576,72.47z"/>
		</g>
		<g>
			<g>
				<g>
					<path fill="#FF916E" d="M74.301,105.608V87.911c-8.671,0.574-15.535,7.771-15.535,16.588c0,9.192,7.452,16.645,16.644,16.645
						c8.82,0,16.017-6.863,16.589-15.535H74.301z"/>
				</g>
				<g>
					<path fill="#FFDB76" d="M77.166,103.389h13.74c-0.379-5.319-3.447-9.901-7.847-12.403L77.166,103.389z"/>
				</g>
				<g>
					<path fill="#333333" d="M76.52,89.003v10.575l4.539-9.557C79.606,89.453,78.085,89.112,76.52,89.003L76.52,89.003z"/>
				</g>
			</g>
			<g id="XMLID_108_">
				<path fill="#333333" d="M81.689,107.511l1.156,0.252l0.531-2.44l-1.157-0.253c0.031-0.975-0.149-1.924-0.504-2.794l0.996-0.641
					l-1.35-2.103l-0.996,0.641c-0.506-0.54-1.104-1-1.775-1.355c-0.173-0.093-0.353-0.178-0.536-0.256
					c-0.007-0.003-0.016-0.005-0.022-0.009l0.253-1.157l-2.441-0.531l-0.252,1.158c-0.256-0.01-0.511-0.002-0.763,0.018
					c-0.707,0.057-1.392,0.223-2.033,0.486l-0.641-0.997l-2.1,1.351l0.639,0.995c-0.685,0.644-1.242,1.434-1.62,2.334l-1.156-0.252
					l-0.531,2.441l1.157,0.251c-0.031,0.977,0.147,1.926,0.503,2.796l-0.995,0.641l1.349,2.101l0.997-0.64
					c0.644,0.687,1.433,1.243,2.334,1.62l-0.252,1.158l2.439,0.53l0.252-1.156c0.258,0.008,0.512,0.001,0.764-0.019
					c0.706-0.056,1.391-0.224,2.032-0.485l0.641,0.997l2.101-1.353l-0.639-0.995C80.754,109.2,81.311,108.412,81.689,107.511z
					 M75.789,109.897c-0.484,0.039-0.982,0.009-1.481-0.101c-2.727-0.593-4.456-3.284-3.863-6.01
					c0.486-2.229,2.369-3.788,4.529-3.963c0.484-0.039,0.983-0.008,1.482,0.101c0.288,0.062,0.562,0.148,0.827,0.256
					c0.186,0.073,0.365,0.158,0.537,0.254c1.908,1.051,2.985,3.264,2.499,5.501C79.833,108.161,77.95,109.722,75.789,109.897z"/>
			</g>
		</g>
		<g>
			<g>
				<g>
					<g>
						
							<rect x="60.926" y="76.808" transform="matrix(0.7072 -0.707 0.707 0.7072 -37.1126 66.6592)" fill="#FFDB76" width="1.99" height="2.654"/>
					</g>
				</g>
				<g>
					<g>
						
							<rect x="62.896" y="71.955" transform="matrix(0.7071 -0.7071 0.7071 0.7071 -33.9492 66.9923)" fill="#FF916E" width="1.99" height="5.042"/>
					</g>
				</g>
				<g>
					
						<rect x="65.063" y="67.577" transform="matrix(0.7071 -0.7071 0.7071 0.7071 -30.8661 67.5057)" fill="#ADEBF6" width="1.99" height="6.873"/>
				</g>
				<g>
					
						<rect x="68.463" y="66.175" transform="matrix(0.7071 -0.7071 0.7071 0.7071 -28.2936 69.2593)" fill="#ADEBF6" width="1.99" height="5.218"/>
				</g>
				<g>
					<g>
						
							<rect x="69.182" y="58.301" transform="matrix(0.7071 -0.7071 0.7071 0.7071 -24.6111 68.3313)" fill="#FF916E" width="1.99" height="11.145"/>
					</g>
				</g>
				<g>
					<g>
						
							<rect x="72.7" y="57.185" transform="matrix(0.7071 -0.7071 0.7071 0.7071 -22.0878 70.2003)" fill="#FFDB76" width="1.991" height="9.156"/>
					</g>
				</g>
				<g>
					
						<rect x="74.061" y="50.859" transform="matrix(0.7071 -0.7071 0.7071 0.7071 -18.6702 69.9139)" fill="#ADEBF6" width="1.99" height="13.268"/>
				</g>
				<g>
					<g>
						
							<rect x="75.561" y="44.874" transform="matrix(0.7071 -0.7071 0.7071 0.7071 -15.3123 69.762)" fill="#FF916E" width="1.991" height="16.983"/>
					</g>
				</g>
				<g>
					<g>
						
							<rect x="77.016" y="38.774" transform="matrix(0.7071 -0.7071 0.7071 0.7071 -11.9327 69.5726)" fill="#FFDB76" width="1.99" height="20.832"/>
					</g>
				</g>
			</g>
			<g>
				<g>
					<g>
						<path fill="#333333" d="M69.363,40.521c-0.118-0.009-0.221,0.08-0.229,0.197l-1.143,15.489l-4.468,0.582
							c-0.06,0.008-0.113,0.041-0.147,0.091c-0.035,0.048-0.047,0.11-0.034,0.168l1.672,7.571l-3.741,1.055
							c-0.076,0.021-0.135,0.084-0.151,0.161l-2.825,13.217c-0.025,0.116,0.049,0.23,0.165,0.255
							c0.074,0.016,0.146-0.009,0.196-0.059c0.028-0.028,0.049-0.064,0.058-0.106l2.798-13.09l3.811-1.076
							c0.109-0.03,0.175-0.141,0.15-0.251l-1.664-7.541l4.41-0.574c0.101-0.014,0.178-0.096,0.186-0.197l1.156-15.662
							C69.569,40.632,69.481,40.529,69.363,40.521z"/>
					</g>
				</g>
				<g>
					<path fill="#FF916E" d="M58.063,78.23c-0.326,0.325-0.326,0.854,0,1.18c0.326,0.326,0.855,0.326,1.181,0.001
						c0.326-0.327,0.326-0.854,0-1.182C58.918,77.903,58.389,77.903,58.063,78.23z"/>
				</g>
				<g>
					<path fill="#FF916E" d="M60.711,65.44c-0.326,0.326-0.326,0.855,0,1.182c0.326,0.326,0.855,0.326,1.181,0
						c0.326-0.326,0.326-0.855,0-1.182C61.566,65.114,61.037,65.115,60.711,65.44z"/>
				</g>
				<g>
					<path fill="#FF916E" d="M64.621,64.154c-0.326,0.326-0.326,0.855,0,1.182c0.326,0.326,0.855,0.326,1.181,0
						c0.326-0.326,0.326-0.855,0-1.182C65.476,63.828,64.947,63.828,64.621,64.154z"/>
				</g>
				<g>
					<path fill="#FF916E" d="M63.032,56.411c-0.326,0.327-0.326,0.855,0,1.182c0.326,0.325,0.855,0.325,1.181,0
						c0.326-0.326,0.326-0.854,0-1.182C63.887,56.085,63.358,56.085,63.032,56.411z"/>
				</g>
				<g>
					<path fill="#FF916E" d="M67.773,55.755c-0.326,0.327-0.326,0.855,0,1.182c0.326,0.326,0.855,0.326,1.181,0
						c0.327-0.326,0.327-0.854,0.001-1.182C68.628,55.43,68.1,55.43,67.773,55.755z"/>
				</g>
				<g>
					<path fill="#FF916E" d="M68.757,40.144c-0.326,0.326-0.326,0.854,0,1.181c0.326,0.326,0.855,0.326,1.181,0
						c0.326-0.326,0.327-0.854,0.001-1.181C69.612,39.817,69.083,39.817,68.757,40.144z"/>
				</g>
			</g>
		</g>
	</g>
	<g>
		<g>
			<path fill="#333333" d="M44.603,63.314l-1.506,1.365c-0.157,0.143-0.169,0.384-0.027,0.542c0.076,0.083,0.18,0.125,0.285,0.125
				c0.092,0,0.184-0.032,0.257-0.1l1.506-1.364c0.157-0.143,0.169-0.386,0.027-0.542C45.003,63.184,44.76,63.171,44.603,63.314z"/>
		</g>
		<g>
			<path fill="#333333" d="M53.055,55.653l-5.68,5.148c-0.157,0.143-0.169,0.386-0.027,0.542c0.076,0.083,0.18,0.126,0.285,0.126
				c0.092,0,0.185-0.032,0.258-0.1l5.679-5.148c0.158-0.142,0.169-0.386,0.027-0.542C53.455,55.522,53.212,55.511,53.055,55.653z"/>
		</g>
	</g>
</g>
</svg>
