<?xml version="1.0" encoding="utf-8"?>
<!-- Generator: Adobe Illustrator 16.0.0, SVG Export Plug-In . SVG Version: 6.00 Build 0)  -->
<!DOCTYPE svg PUBLIC "-//W3C//DTD SVG 1.1//EN" "http://www.w3.org/Graphics/SVG/1.1/DTD/svg11.dtd">
<svg version="1.1" id="Layer_1" xmlns="http://www.w3.org/2000/svg" xmlns:xlink="http://www.w3.org/1999/xlink" x="0px" y="0px"
	 width="128px" height="128px" viewBox="0 0 128 128" enable-background="new 0 0 128 128" xml:space="preserve">
<g>
	<g>
		<polygon fill="#282D33" points="125.411,127.056 0,127.056 0,0.944 4.008,0.944 4.008,123.047 125.411,123.047 		"/>
	</g>
	<g>
		<g>
			<rect x="13.015" y="115.879" fill="#282D33" width="4.008" height="7.518"/>
		</g>
		<g>
			<rect x="30.071" y="115.879" fill="#282D33" width="4.008" height="7.518"/>
		</g>
		<g>
			<rect x="47.126" y="115.879" fill="#282D33" width="4.008" height="7.518"/>
		</g>
		<g>
			<rect x="64.184" y="115.879" fill="#282D33" width="4.008" height="7.518"/>
		</g>
		<g>
			<rect x="81.239" y="115.879" fill="#282D33" width="4.008" height="7.518"/>
		</g>
		<g>
			<rect x="98.293" y="115.879" fill="#282D33" width="4.008" height="7.518"/>
		</g>
		<g>
			<rect x="115.351" y="115.879" fill="#282D33" width="4.009" height="7.518"/>
		</g>
	</g>
	<g>
		<g>
			<rect x="1.742" y="5.673" fill="#282D33" width="7.472" height="4.008"/>
		</g>
		<g>
			<rect x="1.742" y="22.823" fill="#282D33" width="7.472" height="4.008"/>
		</g>
		<g>
			<rect x="1.742" y="39.977" fill="#282D33" width="7.472" height="4.008"/>
		</g>
		<g>
			<rect x="1.742" y="57.129" fill="#282D33" width="7.472" height="4.008"/>
		</g>
		<g>
			<rect x="1.742" y="74.281" fill="#282D33" width="7.472" height="4.009"/>
		</g>
		<g>
			<rect x="1.742" y="91.433" fill="#282D33" width="7.472" height="4.009"/>
		</g>
		<g>
			<rect x="1.742" y="108.586" fill="#282D33" width="7.472" height="4.009"/>
		</g>
	</g>
	<g>
		<polygon fill="#282D33" points="77.015,79.782 61.112,63.789 55.853,69.079 53.01,66.253 61.111,58.103 77.015,74.097 
			124.575,26.267 127.417,29.093 		"/>
	</g>
	<g>
		
			<rect x="26.903" y="72.246" transform="matrix(0.7091 0.7052 -0.7052 0.7091 74.225 6.771)" fill="#282D33" width="4.008" height="42.175"/>
	</g>
	<g>
		<polygon fill="#282D33" points="128,48.153 123.991,48.153 123.991,29.684 105.64,29.684 105.64,25.676 128,25.676 		"/>
	</g>
	<g>
		<polygon fill="#282D33" points="128,78.858 123.991,78.858 123.991,60.392 105.64,60.392 105.64,56.383 128,56.383 		"/>
	</g>
	<g>
		<polygon fill="#282D33" points="80.196,107.29 34.712,61.549 18.003,78.353 15.162,75.526 34.712,55.865 80.196,101.605 
			124.575,56.975 127.417,59.8 		"/>
	</g>
</g>
</svg>
