<?xml version="1.0" encoding="UTF-8"?>
<!DOCTYPE svg PUBLIC "-//W3C//DTD SVG 1.1//EN" "http://www.w3.org/Graphics/SVG/1.1/DTD/svg11.dtd">
<!-- Creator: CorelDRAW -->
<svg xmlns="http://www.w3.org/2000/svg" xml:space="preserve" width="2048px" height="2048px" style="shape-rendering:geometricPrecision; text-rendering:geometricPrecision; image-rendering:optimizeQuality; fill-rule:evenodd; clip-rule:evenodd"
viewBox="0 0 2048 2048"
 xmlns:xlink="http://www.w3.org/1999/xlink">
 <defs>
  <style type="text/css">
   <![CDATA[
    .fil3 {fill:none}
    .fil0 {fill:#8BC34A}
    .fil1 {fill:#FFFFFE}
    .fil2 {fill:#FFFFFE;fill-rule:nonzero}
   ]]>
  </style>
 </defs>
 <g id="Layer_x0020_1">
  <metadata id="CorelCorpID_0Corel-Layer"/>
  <rect class="fil0" width="2048" height="2048" rx="256.001" ry="256.001"/>
  <path class="fil1" d="M781.218 1063.91l28.2591 18.7772 10.7847 7.16339 82.0701 -115.439 51.9993 36.9992 -80.8831 113.77 20.7603 13.7906c17.0646,11.3303 35.2961,65.0752 45.9378,117.819 10.6276,52.6737 14.6728,109.233 3.39213,126.306l-266.614 401.38c-11.3386,17.0646 -28.591,27.9343 -47.3103,31.7103 -18.639,3.75945 -38.6965,0.441733 -55.7528,-10.8449l-282.525 -187.658 -0.124016 -0.125197c-16.9984,-11.3374 -27.828,-28.5544 -31.5945,-47.2252 -3.763,-18.6555 -0.444095,-38.7036 10.852,-55.7126l266.623 -401.38c11.3681,-17.0988 65.1119,-35.3481 117.847,-45.9886 52.6867,-10.6287 109.23,-14.6599 126.278,-3.34134zm25.5012 236.912c-2.58544,10.6949 -7.68544,21.4807 -15.3756,32.1839 -7.62048,10.7728 -16.1669,19.0358 -25.6748,25.0642 -9.45827,5.96457 -19.3524,9.55985 -29.6681,10.7776 -10.3323,1.14685 -20.9055,0.011811 -31.7953,-3.39922 -10.8862,-3.40158 -21.4547,-8.72599 -31.715,-16.0536 -10.4681,-7.5319 -19.0406,-15.8941 -25.624,-25.1799 -6.63071,-9.21379 -10.9654,-18.9461 -13.0488,-29.028 -2.07047,-10.1091 -1.79646,-20.4083 0.764174,-30.9733 2.61614,-10.5543 7.65591,-21.0142 15.0449,-31.4599 10.0843,-14.1437 21.6839,-24.2669 34.6559,-30.3166 13.0559,-6.04961 26.6823,-7.94528 41.0126,-5.57599 14.3091,2.31024 28.6406,8.57245 42.9426,18.815 10.5413,7.52481 19.1445,15.7677 25.7433,24.841 6.59764,8.95512 11.0634,18.6047 13.2957,28.8792 2.2252,10.2567 2.04213,20.7378 -0.557481,31.4256zm-86.0635 126.387l-53.6386 75.2634c-4.35473,6.03426 -8.74135,9.4004 -13.2791,10.1587 -4.58032,0.696851 -9.84804,-1.05473 -15.7748,-5.29843l-102.741 -73.3064c-3.97323,-2.87599 -6.77717,-5.7626 -8.50158,-8.71536 -1.6689,-3.00709 -2.19213,-6.13701 -1.51063,-9.46536 0.590552,-3.33898 2.3126,-6.97914 5.15315,-10.8732l52.128 -73.0819c3.12166,-4.46693 6.44764,-7.02756 9.92954,-7.7941 3.48071,-0.711024 6.83859,0.0141732 9.98505,2.26063 3.27756,2.30551 5.07638,5.28426 5.53583,8.81812 0.402756,3.55512 -0.936615,7.51536 -4.06654,11.8996l-44.5229 62.4119 33.5362 23.8606 40.9654 -57.3556c3.04488,-4.24252 6.23032,-6.71693 9.5882,-7.46812 3.42992,-0.702756 6.64961,-0.022441 9.73702,2.23583 3.15473,2.2441 4.91221,5.05394 5.42599,8.50276 0.496063,3.39922 -0.78189,7.29331 -3.87402,11.6091l-40.9607 57.4288 38.889 27.7382 46.0288 -64.5166c3.08504,-4.38898 6.45827,-6.89174 10.0051,-7.6819 3.61654,-0.785434 7.10197,0.0531496 10.4705,2.45433 3.21614,2.28543 5.00906,5.27717 5.49449,8.87717 0.418111,3.67914 -0.90945,7.70079 -4.00276,12.0378zm-103.695 138.467c-2.14488,10.7965 -7.18819,21.8977 -15.2351,33.117 -9.61536,13.4752 -20.1024,22.8484 -31.4551,27.965 -8.10119,3.5504 -16.5331,5.15433 -25.4492,4.64292 -8.87599,-0.525591 -16.2177,-2.76496 -21.9945,-6.90355 -3.37796,-2.39646 -5.39764,-5.61615 -6.14292,-9.69095 -0.731103,-3.99331 0.158268,-7.88032 2.79331,-11.4898 2.03504,-2.84764 4.74449,-4.72796 8.04449,-5.40355 3.32244,-0.672048 7.29213,-0.441733 12.0036,0.762993 5.57363,1.3311 10.5248,2.05394 14.9445,2.15551 4.33347,0.101575 8.7815,-1.08662 13.3004,-3.39803 4.51536,-2.28898 8.84292,-6.43583 13.1528,-12.3874 5.84292,-8.18623 8.6882,-16.213 8.55119,-24.0673 -0.219685,-7.84371 -3.15591,-13.8591 -8.87599,-17.9315 -4.53662,-3.24685 -9.19725,-4.45985 -13.9784,-3.71811 -4.83071,0.72756 -9.52796,2.73898 -14.1425,6.10512 -4.59213,3.28347 -10.3736,8.0504 -17.2961,14.1756 -9.33072,8.14016 -17.8134,14.4709 -25.6666,18.8693 -7.78583,4.40552 -15.7169,6.69567 -23.8347,6.82441 -8.03386,0.0637796 -16.05,-2.72126 -23.9634,-8.36457 -7.46457,-5.34685 -12.737,-12.1949 -15.6154,-20.4992 -2.91969,-8.21103 -3.16181,-17.3374 -0.767717,-27.3402 2.37874,-10.0736 7.3193,-20.2559 14.837,-30.7831 5.95394,-8.43544 12.1677,-14.8854 18.6638,-19.513 6.4689,-4.61811 12.8445,-7.74686 19.1469,-9.32953 6.32717,-1.5815 12.0508,-1.95709 17.1756,-1.06063 5.10119,0.805512 9.52442,2.53229 13.1055,5.09174 3.30355,2.34921 5.40119,5.68111 6.41575,9.81615 0.968505,4.23898 0.198425,8.10119 -2.25827,11.6102 -2.29725,3.15473 -4.78583,4.92993 -7.513,5.51457 -2.74843,0.529134 -6.64607,0.401575 -11.6291,-0.178347 -6.92599,-1.2378 -13.0996,-1.10315 -18.4807,0.311811 -5.35394,1.40433 -10.7929,5.93268 -16.2945,13.6193 -5.11063,7.17993 -7.64292,14.0351 -7.61693,20.6953 0.00826772,6.63426 2.23347,11.4992 6.62835,14.6256 2.72008,1.98662 5.64685,2.91851 8.66339,2.80866 3.08859,-0.0625985 6.23268,-0.861024 9.5256,-2.43425 3.2811,-1.63228 6.3189,-3.44292 9.01182,-5.56654 2.67284,-2.06221 7.0441,-5.64095 12.9673,-10.689 7.31221,-6.43701 14.2606,-11.987 20.8902,-16.7197 6.63071,-4.64764 13.0807,-8.1189 19.2969,-10.2437 6.2315,-2.14134 12.5717,-2.75197 19.1114,-1.8437 6.53859,0.908268 13.2236,3.84331 20.1154,8.8252 8.27009,5.89725 14.1662,13.298 17.7236,22.2425 3.56103,8.95394 4.24843,18.9071 2.14134,29.7768zm131.043 -322.101c-10.0406,-7.15158 -19.8248,-11.7012 -29.465,-13.7138 -9.67796,-1.99725 -18.5339,-1.35827 -26.5607,1.9878 -8.01969,3.27992 -14.8465,8.80512 -20.374,16.5662 -3.90709,5.55945 -6.54213,11.413 -7.75867,17.6268 -1.28858,6.14174 -1.16339,12.3732 0.462992,18.5634 1.49646,6.24922 4.67126,12.4878 9.47953,18.9154 4.73741,6.35788 11.0126,12.2811 18.7004,17.7591 7.77875,5.5441 15.4843,9.61891 23.1992,12.1276 7.63465,2.52756 14.8299,3.44646 21.5646,2.84882 6.65315,-0.664961 12.6579,-2.57835 17.987,-5.72126 5.42717,-3.16654 10.0453,-7.49056 13.9524,-13.0488 5.0752,-7.10079 7.96654,-14.8642 8.6256,-23.3043 0.701575,-8.5004 -1.37835,-17.1295 -6.27284,-25.911 -4.93465,-8.72127 -12.7654,-16.9559 -23.5406,-24.6957z"/>
  <polygon class="fil2" points="800,1024 543.687,1024 511.686,1024 511.686,991.999 511.686,255.999 511.686,223.999 543.687,223.999 800,223.999 832.001,223.999 832.001,255.999 832.001,991.999 832.001,1024 "/>
  <polygon class="fil2" points="1152.16,1024 895.844,1024 863.844,1024 863.844,991.999 863.844,415.999 863.844,383.998 895.844,383.998 1152.16,383.998 1184.16,383.998 1184.16,415.999 1184.16,991.999 1184.16,1024 "/>
  <polygon class="fil2" points="1504.31,1024 1248,1024 1216,1024 1216,991.999 1216,607.999 1216,575.998 1248,575.998 1504.31,575.998 1536.32,575.998 1536.32,607.999 1536.32,991.999 1536.32,1024 "/>
  <rect class="fil3" x="255.999" y="256.006" width="1536" height="1535.99"/>
  <path class="fil1" d="M1055.48 975.421l82.0701 115.439 10.7847 -7.16339 28.2591 -18.7772c17.048,-11.3185 73.591,-7.28741 126.278,3.34134 52.7351,10.6406 106.479,28.8898 117.847,45.9886l266.623 401.38c11.2961,17.0091 14.615,37.0571 10.852,55.7126 -3.76654,18.6709 -14.5961,35.8878 -31.5945,47.2252l-0.124016 0.125197 -282.525 187.658c-17.0563,11.2866 -37.1138,14.6043 -55.7528,10.8449 -18.7193,-3.77599 -35.9717,-14.6457 -47.3103,-31.7103l-266.614 -401.38c-11.2807,-17.0717 -7.23544,-73.6323 3.39213,-126.306 10.6417,-52.7433 28.8733,-106.488 45.9378,-117.819l20.7603 -13.7906 -80.8831 -113.77 51.9993 -36.9992zm315.939 648.045c-9.04016,-6.27284 -17.2571,-14.9221 -24.4618,-25.9583 -7.29449,-10.9961 -11.915,-21.9496 -14.1036,-32.9929 -2.14843,-10.9724 -1.92756,-21.4984 0.661418,-31.5579 2.65984,-10.0488 7.53544,-19.4988 14.6492,-28.4233 7.10197,-8.92324 15.8823,-16.8567 26.4213,-23.7792 10.8024,-7.04292 21.6957,-12.0189 32.7319,-14.8051 10.9866,-2.85709 21.6272,-3.38622 31.7811,-1.6878 10.1752,1.71851 19.6807,5.69292 28.6087,11.8937 8.89725,6.25158 16.8319,14.7272 23.9055,25.3878 9.54922,14.5122 14.8016,28.9843 15.7595,43.2638 0.927166,14.361 -2.22402,27.7512 -9.60709,40.2603 -7.32166,12.5102 -18.3354,23.615 -33.0496,33.2528 -10.8236,7.11378 -21.6166,12.1606 -32.4603,15.039 -10.7327,2.91969 -21.3437,3.60118 -31.7315,1.97244 -10.3677,-1.62756 -20.0764,-5.58308 -29.1047,-11.8654zm-86.7898 -125.89l-50.8217 -77.1934c-4.05473,-6.23977 -5.61142,-11.5453 -4.67835,-16.05 1.00276,-4.52363 4.5378,-8.80394 10.6358,-12.7984l105.455 -69.3449c4.11614,-2.66575 7.82127,-4.23898 11.198,-4.78111 3.4063,-0.47126 6.51378,0.17126 9.37205,2.00788 2.89961,1.7563 5.67284,4.67717 8.27835,8.7319l49.3323 74.9977c3.03898,4.52244 4.22717,8.55001 3.68386,12.0732 -0.594095,3.50315 -2.4815,6.37205 -5.713,8.49568 -3.33307,2.22284 -6.76064,2.8252 -10.2213,1.97953 -3.46181,-0.908268 -6.67087,-3.58701 -9.62953,-8.08938l-42.1276 -64.0536 -34.3595 22.6595 38.6965 58.9111c2.85709,4.37008 4.01457,8.23583 3.50315,11.6374 -0.583465,3.45236 -2.37874,6.21024 -5.60079,8.27245 -3.2315,2.13307 -6.48662,2.7567 -9.88702,1.99134 -3.35079,-0.765355 -6.51969,-3.36378 -9.42757,-7.80473l-38.7674 -58.9311 -39.9083 26.25 43.5473 66.2186c2.97874,4.46103 4.09489,8.50867 3.55158,12.1039 -0.574016,3.65433 -2.61378,6.60355 -6.06969,8.87717 -3.29173,2.17323 -6.72993,2.76614 -10.2614,1.91929 -3.58229,-0.938977 -6.85276,-3.62835 -9.78072,-8.07993zm-91.689 -146.692c-9.29528,-5.89843 -17.8264,-14.6102 -25.3819,-26.165 -9.09568,-13.8307 -14.0516,-26.9953 -14.7236,-39.43 -0.38504,-8.83583 1.16339,-17.2795 4.85788,-25.4079 3.69449,-8.0882 8.43426,-14.126 14.3788,-18.0189 3.45473,-2.28425 7.18701,-3.00709 11.2559,-2.22874 3.98859,0.758268 7.29213,2.99173 9.70631,6.75237 1.92166,2.92677 2.69764,6.13111 2.13543,9.45237 -0.572835,3.34016 -2.22047,6.96024 -5.04567,10.9193 -3.25394,4.71615 -5.71536,9.07205 -7.40552,13.1575 -1.65945,4.00394 -2.15669,8.5819 -1.63347,13.6299 0.504331,5.03741 2.80866,10.5697 6.80315,16.7386 5.52402,8.40355 11.9835,13.9547 19.3571,16.6642 7.39371,2.62677 14.0634,2.05984 19.9264,-1.80354 4.66536,-3.05906 7.47875,-6.96733 8.51457,-11.6941 1.06536,-4.76693 0.885827,-9.87402 -0.588189,-15.3921 -1.40433,-5.46733 -3.763,-12.5811 -6.9756,-21.248 -4.22126,-11.641 -7.063,-21.8362 -8.32914,-30.7477 -1.29685,-8.85119 -0.569292,-17.0752 2.24173,-24.691 2.84055,-7.51536 8.3315,-13.9843 16.4504,-19.3276 7.68308,-5.03032 15.9721,-7.47402 24.7547,-7.16103 8.71182,0.243307 17.3102,3.31181 25.774,9.15591 8.53465,5.85473 16.2473,14.1378 23.3504,24.9496 5.71536,8.59843 9.4878,16.7209 11.4591,24.45 1.97008,7.69961 2.58662,14.7744 1.78701,21.2244 -0.810237,6.47008 -2.52638,11.9433 -5.21221,16.3996 -2.5937,4.46575 -5.80158,7.96772 -9.47953,10.3819 -3.38504,2.23347 -7.24843,2.98583 -11.4709,2.44016 -4.30276,-0.627166 -7.62638,-2.74016 -10.011,-6.29764 -2.11299,-3.28229 -2.87008,-6.24331 -2.43189,-8.99764 0.499607,-2.75315 2.02559,-6.34371 4.36654,-10.7799 3.65433,-6.01182 5.75788,-11.8181 6.38032,-17.3469 0.623623,-5.49922 -1.63583,-12.2067 -6.81733,-20.113 -4.84961,-7.35709 -10.3287,-12.1949 -16.5496,-14.5736 -6.18898,-2.38937 -11.5299,-2.06929 -16.0323,0.89882 -2.83465,1.82126 -4.76103,4.213 -5.74607,7.06536 -1.05709,2.90315 -1.44685,6.12402 -1.16929,9.76182 0.337796,3.64961 0.929528,7.13741 1.93701,10.415 0.957875,3.23622 2.71654,8.60316 5.28662,15.9508 3.3626,9.1441 6.02953,17.6268 8.0504,25.5189 1.93937,7.86024 2.84764,15.1288 2.58544,21.6933 -0.253937,6.58465 -1.97362,12.7158 -5.1815,18.4866 -3.20788,5.77087 -8.35867,10.9453 -15.4914,15.5728 -8.48623,5.58426 -17.5169,8.40946 -27.1418,8.49804 -9.63544,0.0874016 -19.1669,-2.86418 -28.5414,-8.75316zm253.063 238.495c10.2945,-6.78189 18.0685,-14.2642 23.426,-22.5272 5.35748,-8.30316 7.95945,-16.7917 7.73623,-25.4858 -0.162992,-8.66339 -2.85,-17.0244 -8.09292,-24.9815 -3.77362,-5.6504 -8.28072,-10.2201 -13.6358,-13.5992 -5.263,-3.41811 -11.1189,-5.55237 -17.4791,-6.27048 -6.36851,-0.859843 -13.3323,-0.152362 -21.0626,2.01142 -7.63938,2.12244 -15.4276,5.83583 -23.3126,11.028 -7.97835,5.25237 -14.5595,10.9665 -19.6843,17.2547 -5.11536,6.20788 -8.5689,12.5858 -10.4421,19.0819 -1.78228,6.44528 -2.16614,12.7358 -1.16102,18.8398 0.99567,6.20434 3.35906,12.0721 7.13268,17.7225 4.78937,7.29686 10.9854,12.7961 18.6177,16.4575 7.67363,3.72402 16.4728,4.89922 26.4284,3.50551 9.91536,-1.45394 20.4213,-5.78268 31.5296,-13.037z"/>
 </g>
</svg>
