<?xml version="1.0" encoding="utf-8"?>
<!-- Generator: Adobe Illustrator 16.0.0, SVG Export Plug-In . SVG Version: 6.00 Build 0)  -->
<!DOCTYPE svg PUBLIC "-//W3C//DTD SVG 1.1//EN" "http://www.w3.org/Graphics/SVG/1.1/DTD/svg11.dtd">
<svg version="1.1" id="Layer_1" xmlns="http://www.w3.org/2000/svg" xmlns:xlink="http://www.w3.org/1999/xlink" x="0px" y="0px"
	 width="128px" height="128px" viewBox="0 0 128 128" enable-background="new 0 0 128 128" xml:space="preserve">
<g>
	<g>
		<g>
			<g>
				<polygon fill="#282D33" points="53.401,57.76 53.399,53.76 68.062,53.754 68.063,38.914 72.063,38.914 72.062,57.752 				"/>
			</g>
			<g>
				
					<rect x="47.029" y="43.549" transform="matrix(0.7033 0.7109 -0.7109 0.7033 50.1748 -29.1186)" fill="#282D33" width="25.884" height="4"/>
			</g>
		</g>
		<g>
			<g>
				<polygon fill="#282D33" points="25.582,41.264 21.582,41.264 21.582,22.426 40.243,22.417 40.245,26.417 25.582,26.424 				"/>
			</g>
			<g>
				
					<rect x="20.377" y="32.478" transform="matrix(0.7033 0.7109 -0.7109 0.7033 34.4583 -13.6067)" fill="#282D33" width="26.307" height="4"/>
			</g>
		</g>
	</g>
	<g>
		<g>
			<g>
				<path fill="#282D33" d="M127.478,78.139h-4V5.405c0-0.774-0.615-1.405-1.371-1.405H5.843C5.089,4,4.476,4.63,4.476,5.405v72.732
					h-4V5.405C0.476,2.425,2.883,0,5.843,0h116.264c2.962,0,5.371,2.425,5.371,5.405V78.139z"/>
			</g>
			<g>
				<polygon fill="#282D33" points="72.418,68.864 11.398,68.864 11.398,11.2 116.427,11.2 116.427,48.952 112.427,48.952 
					112.427,15.2 15.398,15.2 15.398,64.864 72.418,64.864 				"/>
			</g>
			<g>
				<path fill="#282D33" d="M72.418,94.802H6.433c-3.043,0-6.029-3.096-6.029-6.25V76.063h72.015v4H4.403v8.489
					c0,0.946,1.176,2.25,2.029,2.25h65.985V94.802z"/>
			</g>
			<g>
				<path fill="#282D33" d="M122.414,94.803h-6.321v-4h6.321c0.677,0,1.183-1.097,1.183-2.078v-8.662h-7.502v-4h11.502v12.662
					C127.597,91.712,125.658,94.803,122.414,94.803z"/>
			</g>
			<g>
				<path fill="#282D33" d="M45.431,110.897l-1.607-3.662c1.347-0.591,2.408-1.094,2.989-1.415l0.171-0.096
					c0.246-0.137,0.552-0.307,0.617-0.374c0.038-0.05,0.19-0.325,0.442-1.608c0.298-1.522,0.262-4.259,0.23-6.673
					c-0.022-1.662-0.043-3.231,0.047-4.346l3.987,0.322c-0.075,0.927-0.056,2.405-0.035,3.971c0.036,2.736,0.074,5.566-0.305,7.495
					c-0.576,2.94-1.198,3.683-3.037,4.707l-0.172,0.096C47.871,109.806,46.46,110.446,45.431,110.897z"/>
			</g>
			<g>
				<rect x="41.251" y="106.855" fill="#282D33" width="31.167" height="4"/>
			</g>
		</g>
	</g>
	<g>
		<g>
			<path fill="#282D33" d="M112.209,128H81.965c-2.293,0-4.159-1.878-4.159-4.186V59.399c0-2.308,1.866-4.185,4.159-4.185h30.244
				c2.293,0,4.158,1.877,4.158,4.185v64.416C116.367,126.122,114.502,128,112.209,128z M81.965,59.214
				c-0.075,0-0.159,0.076-0.159,0.185v64.416c0,0.111,0.082,0.186,0.159,0.186h30.244c0.086,0,0.158-0.085,0.158-0.186V59.399
				c0-0.1-0.072-0.185-0.158-0.185H81.965z"/>
		</g>
		<g>
			<rect x="80.544" y="113.105" fill="#282D33" width="33.085" height="4"/>
		</g>
		<g>
			<rect x="80.544" y="65.564" fill="#282D33" width="33.085" height="4"/>
		</g>
	</g>
</g>
</svg>
