<?xml version="1.0" encoding="UTF-8"?>
<!DOCTYPE svg PUBLIC "-//W3C//DTD SVG 1.1//EN" "http://www.w3.org/Graphics/SVG/1.1/DTD/svg11.dtd">
<!-- Creator: CorelDRAW -->
<svg xmlns="http://www.w3.org/2000/svg" xml:space="preserve" width="6.82666in" height="6.82666in" style="shape-rendering:geometricPrecision; text-rendering:geometricPrecision; image-rendering:optimizeQuality; fill-rule:evenodd; clip-rule:evenodd"
viewBox="0 0 6.82666 6.82666"
 xmlns:xlink="http://www.w3.org/1999/xlink"
 version="1.1">
 <defs>
  <style type="text/css">
   <![CDATA[
    .fil20 {fill:none}
    .fil19 {fill:#1AB1BF}
    .fil1 {fill:#2E2D2C}
    .fil9 {fill:#39B54A}
    .fil0 {fill:#424143}
    .fil11 {fill:#465B65}
    .fil10 {fill:#556F7A}
    .fil3 {fill:#595A5C}
    .fil6 {fill:#92AEB7}
    .fil18 {fill:#939598}
    .fil5 {fill:#BCC8CE}
    .fil7 {fill:#BE1E2D}
    .fil16 {fill:#C1C1C1}
    .fil15 {fill:#C2C8C4}
    .fil17 {fill:#C82026}
    .fil4 {fill:#D3DADE}
    .fil2 {fill:#DDE2E4}
    .fil13 {fill:#DDE3E7}
    .fil12 {fill:#EDEFF0}
    .fil8 {fill:#FFDE17}
    .fil14 {fill:white}
   ]]>
  </style>
 </defs>
 <g id="Layer_x0020_1">
  <metadata id="CorelCorpID_0Corel-Layer"/>
  <g id="_664280176">
   <g id="Guides">
   </g>
   <g id="Layer_2">
   </g>
   <g id="Layer_3">
    <g>
     <g>
      <g>
       <g>
        <rect id="_664291720" class="fil0" x="3.3254" y="4.52196" width="0.175866" height="0.899067"/>
       </g>
       <g>
        <rect id="_664292176" class="fil1" x="3.41333" y="4.52196" width="0.0879331" height="0.899067"/>
       </g>
       <g>
        <g>
         <rect id="_664292200" class="fil2" x="0.989331" y="1.30973" width="4.84803" height="3.13323"/>
        </g>
        <g>
         <path id="_664292248" class="fil3" d="M5.91733 4.523l-5.008 0 0 -3.29326 5.008 0 0 3.29326zm-4.848 -0.16l4.688 0 0 -2.97326 -4.688 0 0 2.97326z"/>
        </g>
       </g>
       <g>
        <rect id="_664291288" class="fil4" x="3.41333" y="1.38973" width="2.35217" height="2.97323"/>
       </g>
       <g>
        <polygon id="_664291408" class="fil0" points="5.91733,4.523 3.41333,4.523 3.41333,4.363 5.75733,4.363 5.75733,1.38973 3.41333,1.38973 3.41333,1.22973 5.91733,1.22973 "/>
       </g>
       <g>
        <rect id="_664291384" class="fil0" x="2.71296" y="5.42106" width="1.40073" height="0.175866"/>
       </g>
       <g>
        <rect id="_664290928" class="fil1" x="3.41333" y="5.42106" width="0.700366" height="0.175866"/>
       </g>
      </g>
      <g>
       <g>
        <rect id="_664290304" class="fil5" x="1.2288" y="1.84757" width="4.3724" height="2.3579"/>
       </g>
       <g>
        <g>
         <rect id="_664290040" class="fil6" x="1.2288" y="1.55347" width="4.3724" height="0.294098"/>
        </g>
        <g>
         <g>
          <path id="_664290736" class="fil7" d="M1.47243 1.74667l-0.0635 0c-0.0255,0 -0.0461654,-0.0206654 -0.0461654,-0.0461654l0 0c0,-0.0255 0.0206654,-0.0461654 0.0461654,-0.0461654l0.0635 -3.93701e-006c0.0255,0 0.0461654,0.0206654 0.0461654,0.0461654l0 0c0,0.0255039 -0.0206654,0.0461693 -0.0461654,0.0461693z"/>
         </g>
         <g>
          <path id="_664290568" class="fil8" d="M1.71773 1.74667l-0.0635 0c-0.0255,0 -0.0461654,-0.0206654 -0.0461654,-0.0461654l0 0c0,-0.0255 0.0206654,-0.0461654 0.0461654,-0.0461654l0.0635 -3.93701e-006c0.0255,0 0.0461654,0.0206654 0.0461654,0.0461654l0 0c0,0.0255039 -0.0206654,0.0461693 -0.0461654,0.0461693z"/>
         </g>
         <g>
          <path id="_664290592" class="fil9" d="M1.96303 1.74667l-0.0635 0c-0.0255,0 -0.0461654,-0.0206654 -0.0461654,-0.0461654l0 0c0,-0.0255 0.0206654,-0.0461654 0.0461654,-0.0461654l0.0635 -3.93701e-006c0.0255,0 0.0461654,0.0206654 0.0461654,0.0461654l0 0c0,0.0255039 -0.0206654,0.0461693 -0.0461654,0.0461693z"/>
         </g>
        </g>
       </g>
      </g>
     </g>
     <g>
      <g>
       <g>
        <path id="_664289680" class="fil10" d="M5.28013 3.30283l0 -0.0735669 -0.0623346 -0.0069685c-0.00493307,-0.0257323 -0.0146339,-0.0497992 -0.0281339,-0.0712008l0.04 -0.0500669 -0.052 -0.052 -0.0494016 0.0394685c-0.0209016,-0.0137677 -0.0444331,-0.0238661 -0.0697008,-0.0293346l-0.00726772 -0.0651339 -0.073563 3.93701e-006 -0.00726772 0.0651339c-0.0244331,0.00529921 -0.0472323,0.0149016 -0.0676339,0.0279685l-0.0533346 -0.0426339 -0.052 0.052 0.0426339 0.0533346c-0.0126339,0.0197008 -0.022,0.0416654 -0.0274016,0.0651654l-0.0702008 0.00783465 0 0.0735669 0.0694016 0.00773228c0.00486614,0.0232323 0.0136654,0.0450669 0.0256339,0.0647008l-0.0445669 0.0557677 0.052 0.052 0.0542008 -0.0432992c0.0194016,0.0130315 0.0410984,0.0228661 0.0644016,0.0287677l0.00776772 0.0695315 0.0735669 -3.93701e-006 0.00743307 -0.0666654c0.0245315,-0.0045315 0.0475669,-0.0134016 0.0682323,-0.0257677l0.0525315 0.0419685 0.052 -0.052 -0.0402008 -0.0502992c0.0142008,-0.0205669 0.0247677,-0.0438346 0.0307992,-0.0689016l0.0644055 -0.00710236z"/>
       </g>
       <g>
        <path id="_664289368" class="fil11" d="M5.28013 3.30283l0 -0.0735669 -0.0623346 -0.0069685c-0.00493307,-0.0257323 -0.0146339,-0.0497992 -0.0281339,-0.0712008l0.04 -0.0500669 -0.052 -0.052 -0.0494016 0.0394685c-0.0209016,-0.0137677 -0.0444331,-0.0238661 -0.0697008,-0.0293346l-0.00726772 -0.0651339 -0.0367638 3.93701e-006 0 0.537598 0.030437 0 0.00743307 -0.0666654c0.0245315,-0.0045315 0.0475669,-0.0134016 0.0682323,-0.0257677l0.0525315 0.0419685 0.052 -0.052 -0.0402008 -0.0502992c0.0142008,-0.0205669 0.0247677,-0.0438346 0.0307992,-0.0689016l0.0643701 -0.00713386z"/>
       </g>
       <g>
        <circle id="_664289896" class="fil12" cx="5.0145" cy="3.26146" r="0.108567"/>
       </g>
       <g>
        <path id="_664289608" class="fil13" d="M5.0145 3.1529l0 0.217165c0.0599685,0 0.108567,-0.0485984 0.108567,-0.108567 3.14961e-005,-0.06 -0.0485984,-0.108598 -0.108567,-0.108598z"/>
       </g>
      </g>
      <g>
       <g>
        <path id="_664289728" class="fil10" d="M4.88323 2.7704l0 -0.110098 -0.0932992 -0.0104016c-0.00736614,-0.0385315 -0.0219016,-0.0745315 -0.0421339,-0.106531l0.0598661 -0.0749331 -0.0778346 -0.0778346 -0.0739331 0.0590669c-0.0312677,-0.0205984 -0.0665,-0.0357008 -0.104299,-0.0439016l-0.0108661 -0.0974685 -0.110098 3.93701e-006 -0.0108661 0.0974685c-0.0365669,0.00793307 -0.0707008,0.0222992 -0.101201,0.0418661l-0.0797992 -0.0637677 -0.0778346 0.0778346 0.0637992 0.0798346c-0.0189016,0.0294685 -0.0329331,0.0623661 -0.041,0.0975315l-0.105067 0.0117323 0 0.110098 0.103902 0.0115984c0.00729921,0.0347992 0.0204331,0.0674331 0.0383346,0.0968346l-0.0667008 0.0834331 0.0778346 0.0778346 0.0810984 -0.0647992c0.0290315,0.0195 0.0615315,0.0342323 0.0964016,0.0430315l0.0115984 0.104031 0.110098 3.93701e-006 0.0111339 -0.0997992c0.0367323,-0.00679921 0.0712008,-0.0200669 0.102134,-0.0385984l0.0785984 0.0628346 0.0778346 -0.0778346 -0.0601339 -0.0752677c0.0212323,-0.0307992 0.0370669,-0.0656339 0.0460669,-0.103098l0.0963661 -0.0107047z"/>
       </g>
       <g>
        <path id="_664288576" class="fil11" d="M4.88323 2.7704l0 -0.110098 -0.0932992 -0.0104016c-0.00736614,-0.0385315 -0.0219016,-0.0745315 -0.0421339,-0.106531l0.0598661 -0.0749331 -0.0778346 -0.0778346 -0.0739331 0.0590669c-0.0312677,-0.0205984 -0.0665,-0.0357008 -0.104299,-0.0439016l-0.0108661 -0.0974685 -0.0550315 3.93701e-006 0 0.804567 0.0455315 0 0.0111339 -0.0997992c0.0367323,-0.00679921 0.0712008,-0.0200669 0.102134,-0.0385984l0.0785984 0.0628346 0.0778346 -0.0778346 -0.0601339 -0.0752677c0.0212323,-0.0307992 0.0370669,-0.0656339 0.0460669,-0.103098l0.0963661 -0.0107047z"/>
       </g>
       <g>
        <circle id="_664289032" class="fil12" cx="4.4857" cy="2.7085" r="0.1625"/>
       </g>
       <g>
        <path id="_664288624" class="fil13" d="M4.4857 2.54603l0 0.324965c0.0897323,0 0.1625,-0.0727323 0.1625,-0.1625 0,-0.0897323 -0.0727323,-0.162465 -0.1625,-0.162465z"/>
       </g>
      </g>
      <g>
       <g>
        <path id="_664288720" class="fil10" d="M4.66636 3.58267l0 -0.0939016 -0.0795984 -0.00886614c-0.00629921,-0.0328661 -0.0186654,-0.0635669 -0.0359331,-0.0908661l0.0510669 -0.0639016 -0.0664016 -0.0664016 -0.0630669 0.0504016c-0.0266654,-0.0175669 -0.0567323,-0.0304331 -0.0889685,-0.0374331l-0.00926772 -0.0831339 -0.0938976 0 -0.00926772 0.0831339c-0.0311654,0.00676772 -0.0602992,0.0190315 -0.0863346,0.0357323l-0.0680276 -0.0544331 -0.0664016 0.0664016 0.0544331 0.0680984c-0.0161339,0.0251339 -0.0280984,0.0532008 -0.0349685,0.0832008l-0.0896339 0.01 0 0.0939016 0.0885984 0.00990157c0.00623228,0.0296654 0.0174331,0.0575 0.0327008,0.0825984l-0.0568661 0.0711654 0.0664016 0.0664016 0.0691654 -0.0552992c0.0247677,0.0166339 0.0525,0.0292008 0.0822323,0.0367008l0.00990157 0.0887323 0.0939016 -3.93701e-006 0.0095 -0.0850984c0.0313346,-0.00579921 0.0607323,-0.0170984 0.0871339,-0.0329016l0.0670315 0.0535984 0.0664016 -0.0664016 -0.0512992 -0.0642008c0.0181339,-0.0262677 0.0315984,-0.0559685 0.0392992,-0.0879331l0.0821654 -0.00919291z"/>
       </g>
       <g>
        <path id="_664288984" class="fil11" d="M4.66636 3.58267l0 -0.0939016 -0.0795984 -0.00886614c-0.00629921,-0.0328661 -0.0186654,-0.0635669 -0.0359331,-0.0908661l0.0510669 -0.0639016 -0.0664016 -0.0664016 -0.0630669 0.0504016c-0.0266654,-0.0175669 -0.0567323,-0.0304331 -0.0889685,-0.0374331l-0.00926772 -0.0831339 -0.0469646 0 0 0.686268 0.0388701 0 0.0095 -0.0850984c0.0313346,-0.00579921 0.0607323,-0.0170984 0.0871339,-0.0329016l0.0670315 0.0535984 0.0664016 -0.0664016 -0.0512992 -0.0642008c0.0181339,-0.0262677 0.0315984,-0.0559685 0.0392992,-0.0879331l0.0821969 -0.00922835z"/>
       </g>
       <g>
        <circle id="_664288528" class="fil12" cx="4.32726" cy="3.5299" r="0.138598"/>
       </g>
       <g>
        <path id="_664288000" class="fil13" d="M4.32726 3.3913l0 0.277201c0.0765315,0 0.138598,-0.0620669 0.138598,-0.138598 0,-0.0765709 -0.0620315,-0.138602 -0.138598,-0.138602z"/>
       </g>
      </g>
     </g>
     <g>
      <g>
       <rect id="_664287712" class="fil14" x="1.45427" y="2.4647" width="2.15546" height="1.28"/>
      </g>
      <g>
       <rect id="_664287856" class="fil6" x="1.45427" y="2.30833" width="2.15546" height="0.156366"/>
      </g>
      <g>
       <rect id="_664288288" class="fil15" x="2.15773" y="3.201" width="0.505634" height="0.334031"/>
      </g>
      <g>
       <rect id="_664287376" class="fil16" x="1.5913" y="3.59283" width="0.289567" height="0.0245669"/>
      </g>
      <g>
       <rect id="_664287256" class="fil17" x="2.8122" y="2.84046" width="0.323134" height="0.0492992"/>
      </g>
      <g>
       <rect id="_664286968" class="fil18" x="2.8122" y="3.37817" width="0.252732" height="0.079"/>
      </g>
      <g>
       <rect id="_664287520" class="fil17" x="1.5913" y="2.59807" width="0.228732" height="0.0337323"/>
      </g>
      <g>
       <g>
        <rect id="_664286368" class="fil19" x="2.21353" y="2.59807" width="0.228732" height="0.0337323"/>
       </g>
       <g>
        <rect id="_664286608" class="fil19" x="2.5617" y="2.59807" width="0.228732" height="0.0337323"/>
       </g>
       <g>
        <rect id="_664286728" class="fil19" x="2.90987" y="2.59807" width="0.228732" height="0.0337323"/>
       </g>
       <g>
        <rect id="_664286440" class="fil19" x="3.25803" y="2.59807" width="0.228732" height="0.0337323"/>
       </g>
      </g>
      <g>
       <g>
        <rect id="_664286200" class="fil16" x="2.8122" y="2.94943" width="0.613531" height="0.0245669"/>
       </g>
       <g>
        <rect id="_664285408" class="fil16" x="2.8122" y="3.019" width="0.495933" height="0.0245669"/>
       </g>
       <g>
        <rect id="_664285528" class="fil16" x="2.8122" y="3.08853" width="0.557531" height="0.0245669"/>
       </g>
       <g>
        <rect id="_664285480" class="fil16" x="2.8122" y="3.15806" width="0.467134" height="0.0245669"/>
       </g>
       <g>
        <rect id="_664285504" class="fil16" x="2.8122" y="3.22763" width="0.355965" height="0.0245669"/>
       </g>
      </g>
      <g>
       <rect id="_664285888" class="fil16" x="1.5913" y="3.6365" width="0.162" height="0.0145"/>
      </g>
      <g>
       <rect id="_664286080" class="fil15" x="1.5913" y="2.84047" width="0.551232" height="0.694531"/>
      </g>
      <g>
       <rect id="_664285168" class="fil15" x="2.15773" y="2.84046" width="0.505634" height="0.347268"/>
      </g>
      <g>
       <rect id="_664285360" class="fil14" x="1.97533" y="2.3563" width="1.5672" height="0.0604331"/>
      </g>
      <g>
       <rect id="_664285000" class="fil14" x="1.5186" y="2.3563" width="0.0604331" height="0.0604331"/>
      </g>
      <g>
       <rect id="_664284856" class="fil14" x="1.6324" y="2.3563" width="0.0604331" height="0.0604331"/>
      </g>
      <g>
       <rect id="_664284904" class="fil14" x="1.7462" y="2.3563" width="0.0604331" height="0.0604331"/>
      </g>
     </g>
    </g>
   </g>
   <g id="Layer_4">
   </g>
   <g id="Layer_5">
   </g>
   <g id="Layer_6">
   </g>
   <g id="Layer_7">
   </g>
   <g id="Layer_8">
   </g>
   <g id="Layer_9">
   </g>
   <g id="Layer_10">
   </g>
   <g id="Layer_11">
   </g>
   <g id="Layer_12">
   </g>
   <g id="Layer_13">
   </g>
   <g id="Layer_14">
   </g>
   <g id="Layer_15">
   </g>
   <g id="Layer_16">
   </g>
   <g id="Layer_17">
   </g>
   <g id="Layer_18">
   </g>
   <g id="Layer_19">
   </g>
   <g id="Layer_20">
   </g>
   <g id="Layer_21">
   </g>
   <g id="Layer_22">
   </g>
   <g id="Layer_23">
   </g>
   <g id="Layer_24">
   </g>
   <g id="Layer_25">
   </g>
   <g id="Layer_26">
   </g>
  </g>
 </g>
 <rect class="fil20" width="6.82666" height="6.82666"/>
</svg>
